<mxfile host="app.diagrams.net" modified="2024-06-15T15:45:36.222Z" agent="Mozilla/5.0 (Windows NT 10.0; Win64; x64; rv:127.0) Gecko/20100101 Firefox/127.0" etag="_DyAn68YNCOoBFn1dc2d" version="24.5.4" type="device">
  <diagram name="Page-1" id="ih8eOheHviyzvs10yqhd">
    <mxGraphModel dx="744" dy="1226" grid="1" gridSize="10" guides="1" tooltips="1" connect="1" arrows="1" fold="1" page="1" pageScale="1" pageWidth="1169" pageHeight="827" math="0" shadow="0">
      <root>
        <mxCell id="0" />
        <mxCell id="1" parent="0" />
        <mxCell id="aZD_sUUFSxYWTqr55sUa-3" style="rounded=0;orthogonalLoop=1;jettySize=auto;html=1;exitX=1;exitY=0.5;exitDx=0;exitDy=0;entryX=0;entryY=0.5;entryDx=0;entryDy=0;endArrow=none;endFill=0;" edge="1" parent="1" source="l89djMeS_JM6joO0B9wL-18" target="l89djMeS_JM6joO0B9wL-28">
          <mxGeometry relative="1" as="geometry" />
        </mxCell>
        <mxCell id="l89djMeS_JM6joO0B9wL-18" value="Bibliotecas" style="rounded=0;whiteSpace=wrap;html=1;fontSize=22;" parent="1" vertex="1">
          <mxGeometry x="200" y="120" width="160" height="80" as="geometry" />
        </mxCell>
        <mxCell id="l89djMeS_JM6joO0B9wL-33" style="edgeStyle=orthogonalEdgeStyle;rounded=0;orthogonalLoop=1;jettySize=auto;html=1;exitX=1;exitY=0.5;exitDx=0;exitDy=0;entryX=0;entryY=0.5;entryDx=0;entryDy=0;endArrow=none;endFill=0;" parent="1" source="l89djMeS_JM6joO0B9wL-24" target="l89djMeS_JM6joO0B9wL-29" edge="1">
          <mxGeometry relative="1" as="geometry" />
        </mxCell>
        <mxCell id="l89djMeS_JM6joO0B9wL-24" value="Usuário" style="rounded=0;whiteSpace=wrap;html=1;fontSize=22;" parent="1" vertex="1">
          <mxGeometry x="200" y="600" width="160" height="80" as="geometry" />
        </mxCell>
        <mxCell id="l89djMeS_JM6joO0B9wL-25" value="Reserva" style="rounded=0;whiteSpace=wrap;html=1;fontSize=22;" parent="1" vertex="1">
          <mxGeometry x="640" y="535" width="160" height="80" as="geometry" />
        </mxCell>
        <mxCell id="aZD_sUUFSxYWTqr55sUa-4" style="rounded=0;orthogonalLoop=1;jettySize=auto;html=1;exitX=1;exitY=0.5;exitDx=0;exitDy=0;entryX=0;entryY=0.5;entryDx=0;entryDy=0;endArrow=none;endFill=0;" edge="1" parent="1" source="l89djMeS_JM6joO0B9wL-28">
          <mxGeometry relative="1" as="geometry">
            <mxPoint x="640" y="160" as="targetPoint" />
          </mxGeometry>
        </mxCell>
        <mxCell id="l89djMeS_JM6joO0B9wL-28" value="possui" style="rhombus;whiteSpace=wrap;html=1;fontSize=22;" parent="1" vertex="1">
          <mxGeometry x="440" y="100" width="120" height="120" as="geometry" />
        </mxCell>
        <mxCell id="l89djMeS_JM6joO0B9wL-34" style="edgeStyle=orthogonalEdgeStyle;rounded=0;orthogonalLoop=1;jettySize=auto;html=1;exitX=1;exitY=0.5;exitDx=0;exitDy=0;entryX=0;entryY=0.5;entryDx=0;entryDy=0;endArrow=none;endFill=0;" parent="1" source="l89djMeS_JM6joO0B9wL-29" target="l89djMeS_JM6joO0B9wL-25" edge="1">
          <mxGeometry relative="1" as="geometry" />
        </mxCell>
        <mxCell id="aZD_sUUFSxYWTqr55sUa-15" style="edgeStyle=orthogonalEdgeStyle;rounded=0;orthogonalLoop=1;jettySize=auto;html=1;exitX=1;exitY=0.5;exitDx=0;exitDy=0;entryX=0;entryY=0.5;entryDx=0;entryDy=0;endArrow=none;endFill=0;" edge="1" parent="1" source="l89djMeS_JM6joO0B9wL-29" target="aZD_sUUFSxYWTqr55sUa-14">
          <mxGeometry relative="1" as="geometry" />
        </mxCell>
        <mxCell id="l89djMeS_JM6joO0B9wL-29" value="realiza" style="rhombus;whiteSpace=wrap;html=1;fontSize=22;" parent="1" vertex="1">
          <mxGeometry x="425" y="575" width="130" height="130" as="geometry" />
        </mxCell>
        <mxCell id="aZD_sUUFSxYWTqr55sUa-5" value="(1,N)" style="text;html=1;align=center;verticalAlign=middle;resizable=0;points=[];autosize=1;strokeColor=none;fillColor=none;fontSize=18;" vertex="1" parent="1">
          <mxGeometry x="580" y="125" width="60" height="40" as="geometry" />
        </mxCell>
        <mxCell id="aZD_sUUFSxYWTqr55sUa-10" value="Itens" style="rounded=0;whiteSpace=wrap;html=1;fontSize=22;" vertex="1" parent="1">
          <mxGeometry x="640" y="120" width="160" height="80" as="geometry" />
        </mxCell>
        <mxCell id="aZD_sUUFSxYWTqr55sUa-14" value="Empréstimo" style="rounded=0;whiteSpace=wrap;html=1;fontSize=22;" vertex="1" parent="1">
          <mxGeometry x="640" y="675" width="160" height="80" as="geometry" />
        </mxCell>
        <mxCell id="aZD_sUUFSxYWTqr55sUa-20" style="edgeStyle=orthogonalEdgeStyle;rounded=0;orthogonalLoop=1;jettySize=auto;html=1;exitX=0.5;exitY=0;exitDx=0;exitDy=0;entryX=0.5;entryY=1;entryDx=0;entryDy=0;endArrow=none;endFill=0;" edge="1" parent="1" source="aZD_sUUFSxYWTqr55sUa-16" target="aZD_sUUFSxYWTqr55sUa-17">
          <mxGeometry relative="1" as="geometry" />
        </mxCell>
        <mxCell id="aZD_sUUFSxYWTqr55sUa-16" value="Gênero" style="rounded=0;whiteSpace=wrap;html=1;fontSize=22;" vertex="1" parent="1">
          <mxGeometry x="640" y="380" width="160" height="80" as="geometry" />
        </mxCell>
        <mxCell id="aZD_sUUFSxYWTqr55sUa-21" style="edgeStyle=orthogonalEdgeStyle;rounded=0;orthogonalLoop=1;jettySize=auto;html=1;exitX=0.5;exitY=0;exitDx=0;exitDy=0;entryX=0.5;entryY=1;entryDx=0;entryDy=0;endArrow=none;endFill=0;" edge="1" parent="1" source="aZD_sUUFSxYWTqr55sUa-17" target="aZD_sUUFSxYWTqr55sUa-10">
          <mxGeometry relative="1" as="geometry" />
        </mxCell>
        <mxCell id="aZD_sUUFSxYWTqr55sUa-17" value="categoriza" style="rhombus;whiteSpace=wrap;html=1;fontSize=22;" vertex="1" parent="1">
          <mxGeometry x="660" y="230" width="120" height="120" as="geometry" />
        </mxCell>
        <mxCell id="aZD_sUUFSxYWTqr55sUa-22" value="&lt;font style=&quot;font-size: 18px;&quot;&gt;(N,N)&lt;/font&gt;" style="text;html=1;align=center;verticalAlign=middle;resizable=0;points=[];autosize=1;strokeColor=none;fillColor=none;" vertex="1" parent="1">
          <mxGeometry x="715" y="340" width="70" height="40" as="geometry" />
        </mxCell>
        <mxCell id="aZD_sUUFSxYWTqr55sUa-23" value="&lt;font style=&quot;font-size: 18px;&quot;&gt;(N,N)&lt;/font&gt;" style="text;html=1;align=center;verticalAlign=middle;resizable=0;points=[];autosize=1;strokeColor=none;fillColor=none;" vertex="1" parent="1">
          <mxGeometry x="719" y="200" width="70" height="40" as="geometry" />
        </mxCell>
      </root>
    </mxGraphModel>
  </diagram>
</mxfile>
